<?xml version="1.0" encoding="utf-8"?><!-- Uploaded to: SVG Repo, www.svgrepo.com, Generator: SVG Repo Mixer Tools -->
<svg version="1.1" id="designs" xmlns="http://www.w3.org/2000/svg" xmlns:xlink="http://www.w3.org/1999/xlink" 
	 width="800px" height="800px" viewBox="0 0 32 32" xml:space="preserve">
<style type="text/css">
	.sketchy_een{fill:#111918;}
</style>
<path class="sketchy_een" d="M29.153,16.917c-0.02-0.238-0.081-0.442-0.253-0.614c-0.076-0.076-0.168-0.134-0.265-0.177
	c-0.15-0.191-0.374-0.322-0.634-0.33c-0.233-0.006-0.468,0.007-0.703,0.015c0.109-0.318,0.054-0.692-0.203-0.931
	c-0.315-0.295-0.628-0.59-0.945-0.883c-0.184-0.171-0.421-0.261-0.656-0.261c-0.228,0-0.454,0.084-0.631,0.261
	c-0.339,0.341-0.364,0.953,0,1.289c0.199,0.183,0.401,0.363,0.602,0.544c-0.68,0.007-1.36,0.018-2.04,0.022
	c-0.168,0-0.335-0.005-0.503-0.005c-0.016-0.205-0.1-0.363-0.229-0.525c-0.123-0.155-0.246-0.311-0.368-0.465
	c-0.129-0.162-0.388-0.241-0.586-0.241c-0.218,0-0.43,0.087-0.584,0.241s-0.244,0.366-0.244,0.586c0,0.149,0.048,0.27,0.113,0.384
	c-0.802-0.016-1.603-0.037-2.405-0.056c-0.009,0-0.018,0-0.027,0c-0.019-0.075-0.039-0.15-0.073-0.227
	c-0.055-0.121-0.109-0.24-0.162-0.36c-0.081-0.182-0.301-0.323-0.485-0.372c-0.07-0.019-0.141-0.029-0.213-0.029
	c-0.143,0-0.285,0.037-0.409,0.11c-0.18,0.105-0.317,0.281-0.372,0.483c-0.036,0.133-0.027,0.253,0,0.371
	c-1.109-0.011-2.219-0.018-3.328-0.031c-0.832-0.01-1.664-0.016-2.493-0.046c-0.345-0.012-0.69-0.016-1.036-0.025
	c-0.015-0.234-0.028-0.469-0.038-0.703c-0.014-0.354-0.036-0.709-0.051-1.065c-0.03-0.695-0.071-1.388-0.087-2.083
	c-0.018-0.677-0.016-1.353-0.018-2.03c-0.004-0.636,0.008-1.268,0.078-1.9c0.055-0.331,0.136-0.646,0.254-0.959
	c0.048-0.1,0.101-0.197,0.161-0.29c0.024-0.026,0.048-0.051,0.073-0.075c0.011-0.007,0.022-0.013,0.032-0.019
	c0.083-0.026,0.167-0.048,0.252-0.066c0.102-0.006,0.203-0.005,0.304,0.001c0.144,0.028,0.286,0.066,0.424,0.114
	c0.111,0.056,0.214,0.124,0.319,0.19c-0.075,0.201-0.12,0.406-0.072,0.633c0.048,0.223,0.18,0.392,0.317,0.562
	c0.173,0.25,0.336,0.525,0.572,0.719c0.139,0.113,0.291,0.222,0.473,0.25c0.216,0.03,0.414,0.026,0.616-0.06
	c0.232-0.097,0.404-0.2,0.6-0.362c0.267-0.22,0.481-0.491,0.693-0.766c0.22-0.285,0.422-0.586,0.62-0.885
	c0.168-0.251,0.339-0.505,0.511-0.752c0.156-0.226,0.335-0.446,0.459-0.691c0.097-0.188,0.162-0.39,0.164-0.602
	c0.004-0.535-0.489-0.822-0.949-0.923c-0.337-0.075-0.675-0.143-1.008-0.236c-0.067-0.018-0.134-0.027-0.201-0.027
	c-0.117,0-0.231,0.026-0.335,0.075c-0.052-0.006-0.104,0.008-0.156,0.012c-0.068-0.16-0.171-0.306-0.331-0.396
	c-0.35-0.198-0.663-0.454-1.01-0.661c-0.358-0.216-0.776-0.366-1.18-0.477c-0.412-0.113-0.856-0.158-1.281-0.17
	C10.201,2.001,10.174,2,10.146,2C9.728,2,9.297,2.085,8.905,2.221C8.667,2.302,8.439,2.397,8.212,2.5
	C7.932,2.627,7.695,2.827,7.457,3.017C7.31,3.134,7.19,3.282,7.071,3.427C6.905,3.629,6.748,3.843,6.6,4.061
	C6.493,4.217,6.392,4.377,6.295,4.54C6.122,4.833,6.017,5.178,5.926,5.504C5.805,5.94,5.744,6.392,5.7,6.841
	c-0.153,1.602-0.095,3.22-0.097,4.828c-0.002,0.774-0.008,1.551-0.018,2.327c-0.006,0.37-0.01,0.741,0,1.111
	c0.003,0.158,0.004,0.317,0.009,0.475c-0.043-0.001-0.087,0-0.13-0.001c-0.26-0.004-0.52-0.008-0.78-0.008
	c-0.241,0-0.481,0.003-0.721,0.012c-0.179,0.007-0.338,0.077-0.476,0.173c-0.142,0.043-0.277,0.109-0.383,0.215
	c-0.182,0.182-0.246,0.396-0.267,0.646c-0.022,0.255-0.042,0.509-0.052,0.766c-0.01,0.285,0.01,0.551,0.053,0.834
	c0.105,0.708,0.678,1.18,1.334,1.366c-0.021,0.695-0.003,1.396,0.083,2.087c0.052,0.416,0.109,0.834,0.178,1.25
	c0.063,0.374,0.117,0.747,0.234,1.109c0.137,0.428,0.37,0.79,0.64,1.143c0.281,0.366,0.574,0.725,0.943,1.01
	c0.103,0.079,0.212,0.151,0.318,0.225c-0.154,0.339-0.308,0.679-0.444,1.024c-0.099,0.25-0.133,0.517-0.164,0.782
	c-0.016,0.123,0.01,0.305,0.038,0.416c0.032,0.133,0.077,0.267,0.141,0.386c0.162,0.303,0.424,0.521,0.715,0.693
	c0.4,0.236,0.863,0.293,1.317,0.253c0.289-0.026,0.555-0.077,0.818-0.204c0.333-0.16,0.598-0.384,0.814-0.683
	c0.289-0.396,0.414-0.899,0.598-1.351c0.011-0.028,0.001-0.063,0.007-0.094c0.198,0.006,0.395,0.01,0.589,0.015
	c0.8,0.02,1.6,0.04,2.4,0.062c1.562,0.043,3.121,0.133,4.684,0.123c0.798-0.006,1.594-0.016,2.39-0.02
	c0.654-0.003,1.309-0.077,1.96-0.15c0.012,0.222,0.032,0.442,0.087,0.657c0.063,0.25,0.196,0.493,0.333,0.711
	c0.111,0.176,0.25,0.337,0.41,0.469c0.495,0.408,1.113,0.568,1.747,0.477c0.43-0.061,0.81-0.289,1.135-0.568
	c0.208-0.178,0.347-0.418,0.45-0.667c0.067-0.162,0.125-0.317,0.133-0.499c0.024-0.438-0.129-0.822-0.357-1.186
	c-0.113-0.18-0.228-0.356-0.329-0.542c-0.013-0.024-0.04-0.033-0.055-0.055c0.094-0.08,0.191-0.156,0.28-0.242
	c0.18-0.176,0.333-0.39,0.479-0.594c0.107-0.146,0.208-0.305,0.289-0.465c0.23-0.446,0.418-0.907,0.552-1.388
	c0.141-0.499,0.198-1.03,0.252-1.543c0.071-0.689,0.125-1.387,0.101-2.082c0.205-0.081,0.407-0.167,0.596-0.28
	c0.172-0.099,0.396-0.297,0.489-0.475c0.105-0.206,0.153-0.366,0.178-0.594c0.012-0.111,0.016-0.22,0.016-0.333
	C29.221,17.945,29.197,17.432,29.153,16.917z M27.478,18.622c0.007-0.009,0.014-0.018,0.02-0.027c0,0.001,0,0.003,0,0.004
	C27.492,18.607,27.485,18.615,27.478,18.622z M27.564,18.495c0.008-0.019,0.016-0.038,0.024-0.057
	c-0.006,0.019-0.014,0.037-0.022,0.055l-0.001,0C27.565,18.494,27.565,18.495,27.564,18.495z M13.093,6.957
	c0.003,0.003,0.005,0.006,0.008,0.01l0,0.001C13.099,6.964,13.096,6.96,13.093,6.957z M14.628,5.191
	c0.007,0.001,0.014,0.001,0.021,0.002C14.642,5.193,14.635,5.192,14.628,5.191L14.628,5.191L14.628,5.191
	c0.015,0.001,0.03,0.003,0.044,0.005c0.009,0.001,0.018,0.002,0.027,0.003c-0.009-0.001-0.017-0.002-0.026-0.003
	c0.039,0.006,0.077,0.011,0.116,0.017c-0.104,0.149-0.206,0.298-0.306,0.45c-0.302,0.454-0.585,0.916-0.911,1.354
	c-0.076,0.092-0.155,0.181-0.24,0.266c-0.023-0.032-0.047-0.064-0.07-0.096c0.053-0.081,0.106-0.162,0.154-0.245
	c0.123-0.212,0.248-0.422,0.384-0.624C14.061,5.931,14.345,5.562,14.628,5.191z M7.144,9.213C7.154,8.427,7.18,7.645,7.267,6.863
	C7.3,6.646,7.336,6.432,7.386,6.217c0.052-0.227,0.133-0.451,0.218-0.67c0.118-0.246,0.272-0.466,0.434-0.684
	c0.175-0.221,0.356-0.432,0.565-0.625c0.133-0.094,0.269-0.177,0.416-0.251c0.281-0.106,0.566-0.187,0.86-0.241
	c0.267-0.02,0.53-0.017,0.798,0.011c0.356,0.059,0.693,0.152,1.029,0.282c0.196,0.091,0.376,0.195,0.552,0.321
	c0.196,0.141,0.386,0.281,0.594,0.402c0.013,0.008,0.028,0.007,0.042,0.014c-0.129,0.186-0.251,0.376-0.374,0.567
	c-0.512-0.299-1.081-0.493-1.666-0.493c-0.207,0-0.415,0.023-0.623,0.074C10.042,4.972,9.85,5.056,9.68,5.149
	C9.444,5.279,9.262,5.493,9.108,5.709C8.88,6.024,8.747,6.416,8.63,6.782c-0.24,0.753-0.25,1.562-0.273,2.345
	c-0.022,0.729-0.002,1.456,0.002,2.184c0.004,0.78,0.067,1.557,0.081,2.337c0.014,0.653,0.01,1.307,0.022,1.961
	c-0.423-0.004-0.848-0.008-1.271-0.013c-0.021-0.534-0.028-1.068-0.035-1.6c-0.012-0.8-0.018-1.6-0.018-2.4
	C7.136,10.802,7.136,10.008,7.144,9.213z M4.597,18.013c0.011,0.014,0.022,0.029,0.034,0.043c-0.012-0.013-0.023-0.027-0.033-0.042
	L4.597,18.013z M4.559,17.949c-0.006-0.013-0.012-0.026-0.017-0.039C4.548,17.922,4.553,17.936,4.559,17.949L4.559,17.949z
	 M7.617,28.232c0.001,0,0.001,0,0.001,0l0.001,0C7.618,28.233,7.617,28.233,7.617,28.232z M7.641,28.244
	C7.641,28.243,7.641,28.243,7.641,28.244l0-0.001c0.024,0.01,0.048,0.02,0.072,0.03C7.688,28.264,7.664,28.255,7.641,28.244z
	 M8.586,27.874c-0.046,0.094-0.096,0.185-0.154,0.272c-0.008,0.009-0.016,0.017-0.025,0.026c-0.058,0.037-0.117,0.071-0.178,0.103
	c-0.023,0.007-0.046,0.013-0.07,0.019c-0.126,0.01-0.25,0.011-0.375,0.004c-0.007-0.002-0.015-0.004-0.022-0.006
	c-0.041-0.022-0.081-0.044-0.12-0.069c0.025-0.118,0.058-0.233,0.099-0.346c0.104-0.222,0.21-0.442,0.316-0.663
	c0.167,0.066,0.335,0.129,0.506,0.181c0.06,0.018,0.123,0.027,0.184,0.042C8.693,27.581,8.641,27.728,8.586,27.874z M25.251,28.174
	c-0.014,0.028-0.029,0.054-0.045,0.081c-0.034,0.035-0.069,0.068-0.105,0.1c-0.031,0.02-0.063,0.038-0.095,0.054
	c-0.07,0.025-0.139,0.047-0.21,0.063c-0.046,0.001-0.092-0.001-0.137-0.004c-0.067-0.016-0.13-0.035-0.194-0.057
	c-0.036-0.019-0.072-0.04-0.107-0.062c-0.033-0.03-0.065-0.061-0.095-0.093c-0.045-0.069-0.085-0.14-0.122-0.214
	c-0.02-0.06-0.037-0.119-0.05-0.181c-0.007-0.118-0.008-0.236-0.01-0.355c-0.001-0.036-0.017-0.068-0.022-0.103
	c0.221-0.055,0.437-0.124,0.647-0.208c0.012,0.025,0.012,0.059,0.028,0.08c0.185,0.239,0.376,0.485,0.515,0.755
	c0.008,0.027,0.016,0.054,0.023,0.082C25.265,28.133,25.258,28.154,25.251,28.174z M25.848,24.088
	c0.025-0.059,0.05-0.119,0.075-0.178c-0.001,0.002-0.001,0.004-0.002,0.006C25.897,23.973,25.872,24.03,25.848,24.088z
	 M26.292,21.254c-0.008,0.484-0.019,0.972-0.07,1.452c-0.061,0.407-0.145,0.817-0.298,1.201c-0.154,0.348-0.328,0.672-0.546,0.982
	c-0.152,0.181-0.317,0.344-0.497,0.498c-0.222,0.156-0.456,0.283-0.703,0.395c-0.414,0.15-0.835,0.238-1.267,0.303
	c-0.713,0.087-1.43,0.16-2.147,0.21c-0.776,0.055-1.56,0.046-2.339,0.052c-1.566,0.012-3.135-0.03-4.699-0.091
	c-0.711-0.026-1.422-0.057-2.131-0.081c-0.636-0.022-1.274-0.058-1.905-0.131c-0.375-0.065-0.731-0.163-1.087-0.297
	c-0.429-0.196-0.837-0.436-1.223-0.708c-0.253-0.218-0.474-0.458-0.685-0.718c-0.146-0.2-0.284-0.404-0.393-0.626
	c-0.133-0.379-0.181-0.776-0.241-1.174c-0.052-0.362-0.114-0.723-0.167-1.086c-0.071-0.639-0.057-1.274-0.031-1.917
	c0.015-0.306-0.174-0.569-0.429-0.717c-0.041-0.307-0.261-0.579-0.575-0.667c-0.037-0.01-0.073-0.021-0.108-0.033
	c-0.032-0.017-0.064-0.035-0.094-0.054c-0.023-0.022-0.045-0.044-0.067-0.066l0-0.001c-0.017-0.24-0.006-0.479,0.014-0.719
	c0.612-0.025,1.222-0.053,1.836-0.047c0.42,0.006,0.84,0.004,1.26,0.004c0.366,0,0.733,0,1.101,0.002
	c0.808,0.006,1.616,0.04,2.424,0.065c0.836,0.028,1.675,0.036,2.513,0.03c1.683-0.008,3.365-0.022,5.046,0.034
	c0.806,0.026,1.614,0.057,2.42,0.073c0.822,0.016,1.644,0.012,2.466,0.014c0.762,0.004,1.527,0.01,2.289,0.004
	c0.5-0.003,1.001-0.016,1.501-0.017c0.031,0.371,0.055,0.741,0.042,1.112c-0.068,0.041-0.137,0.079-0.21,0.114
	c-0.062,0.024-0.125,0.048-0.187,0.073c-0.206,0.081-0.37,0.176-0.487,0.375c-0.034,0.058-0.046,0.125-0.065,0.19
	c-0.186,0.155-0.315,0.375-0.296,0.624C26.292,20.357,26.3,20.804,26.292,21.254z M14.673,5.197
	c-0.008-0.001-0.016-0.002-0.024-0.003C14.656,5.195,14.664,5.196,14.673,5.197L14.673,5.197z M16.01,11.364
	c-0.186,0.109-0.412,0.138-0.62,0.081c-0.184-0.052-0.398-0.19-0.481-0.37c-0.087-0.192-0.156-0.39-0.236-0.586
	c-0.069-0.17-0.148-0.341-0.19-0.521c-0.091-0.4,0.117-0.814,0.525-0.927c0.065-0.018,0.132-0.027,0.199-0.027
	c0.134,0,0.266,0.035,0.381,0.104c0.182,0.105,0.275,0.26,0.347,0.449c0.008,0.021,0.015,0.043,0.023,0.064
	c0.017,0.048,0.036,0.096,0.055,0.143c0.055,0.123,0.113,0.24,0.184,0.353c0.178,0.213,0.26,0.476,0.184,0.755
	C16.325,11.085,16.191,11.259,16.01,11.364z M15.729,12.985c-0.075-0.204-0.02-0.473,0.087-0.656c0.111-0.19,0.295-0.331,0.507-0.39
	c0.074-0.021,0.15-0.031,0.226-0.031c0.15,0,0.3,0.04,0.43,0.116c0.202,0.119,0.311,0.293,0.39,0.509
	c0.099,0.273,0.196,0.549,0.293,0.824c0.151,0.432-0.168,0.917-0.584,1.03c-0.216,0.061-0.451,0.03-0.646-0.083
	c-0.206-0.121-0.299-0.289-0.384-0.501C15.937,13.532,15.832,13.259,15.729,12.985z M16.739,6.206
	c0.157-0.157,0.371-0.238,0.584-0.238c0.21,0,0.42,0.078,0.575,0.238c0.163,0.165,0.319,0.345,0.492,0.5
	c0.008,0.005,0.016,0.01,0.025,0.014c0.37,0.242,0.523,0.715,0.291,1.111c-0.107,0.182-0.283,0.317-0.485,0.372
	c-0.192,0.054-0.457,0.04-0.626-0.081c-0.309-0.226-0.586-0.489-0.856-0.759C16.423,7.049,16.424,6.521,16.739,6.206z M19.823,9.285
	c0.155-0.265,0.459-0.429,0.762-0.429c0.145,0,0.29,0.038,0.419,0.121c0.198,0.127,0.396,0.258,0.59,0.388
	c0.188,0.129,0.331,0.285,0.392,0.509c0.059,0.22,0.028,0.459-0.087,0.655c-0.232,0.396-0.766,0.545-1.162,0.305
	c-0.202-0.121-0.404-0.244-0.602-0.368C19.736,10.216,19.581,9.699,19.823,9.285z M22.525,12.731c-0.345-0.301-0.307-0.879,0-1.184
	c0.164-0.165,0.367-0.241,0.572-0.241c0.217,0,0.436,0.085,0.612,0.241c0.199,0.176,0.395,0.358,0.6,0.531
	c0.006,0.004,0.012,0.008,0.018,0.012c0.184,0.129,0.323,0.277,0.384,0.499c0.059,0.216,0.03,0.452-0.083,0.646
	c-0.111,0.186-0.291,0.325-0.499,0.382c-0.196,0.055-0.475,0.044-0.644-0.083C23.151,13.284,22.84,13.005,22.525,12.731z
	 M18.516,9.804c0.164,0.215,0.328,0.43,0.494,0.645c0.06,0.076,0.12,0.151,0.183,0.225c0.151,0.174,0.246,0.356,0.246,0.592
	c0,0.222-0.089,0.436-0.246,0.592c-0.156,0.156-0.37,0.245-0.592,0.245c-0.204,0-0.457-0.083-0.592-0.245
	c-0.281-0.337-0.552-0.681-0.824-1.028c-0.105-0.105-0.178-0.23-0.218-0.373c-0.04-0.15-0.04-0.301,0-0.451
	c0.059-0.212,0.2-0.394,0.39-0.505c0.131-0.077,0.281-0.116,0.431-0.116c0.074,0,0.148,0.01,0.22,0.029
	C18.242,9.479,18.375,9.62,18.516,9.804z M19.332,12.957c0.059-0.212,0.2-0.396,0.39-0.509c0.13-0.076,0.28-0.115,0.43-0.115
	c0.076,0,0.152,0.01,0.226,0.03c0.232,0.065,0.366,0.206,0.507,0.39c0.099,0.133,0.197,0.266,0.297,0.399
	c0.018,0.022,0.036,0.044,0.054,0.065c0.149,0.176,0.246,0.357,0.246,0.594c0,0.22-0.089,0.436-0.246,0.592
	c-0.309,0.309-0.881,0.341-1.184,0c-0.224-0.253-0.428-0.525-0.634-0.792C19.287,13.44,19.279,13.153,19.332,12.957z M25.112,20.907
	c0.026,0.733-0.01,1.485-0.232,2.19c-0.152,0.481-0.394,0.96-0.758,1.317c-0.301,0.293-0.661,0.535-1.008,0.772
	c-0.37,0.251-0.907,0.071-1.121-0.293c-0.21-0.362-0.109-0.927,0.293-1.121c0.156-0.074,0.297-0.163,0.436-0.26
	c0.108-0.088,0.209-0.18,0.301-0.284c0.067-0.099,0.128-0.2,0.18-0.306c0.105-0.297,0.171-0.604,0.219-0.916
	c0.036-0.366,0.013-0.734-0.004-1.099c-0.022-0.464,0.4-0.848,0.848-0.848C24.74,20.059,25.096,20.445,25.112,20.907z"/>
</svg>